<svg width="14" height="14" viewBox="0 0 14 14" fill="none" xmlns="http://www.w3.org/2000/svg">
<path d="M12.7619 7.13764C12.7619 6.72977 12.7288 6.31971 12.6583 5.91846H6.9989V8.22895H10.2398C10.1053 8.97412 9.67317 9.63332 9.04043 10.0522V11.5514H10.9739C12.1093 10.5064 12.7619 8.9631 12.7619 7.13764Z" fill="#111111"/>
<path d="M6.99889 13.0002C8.61712 13.0002 9.98181 12.4688 10.9761 11.5517L9.04262 10.0525C8.50468 10.4185 7.81021 10.6257 7.0011 10.6257C5.43579 10.6257 4.10858 9.56971 3.63237 8.1499H1.63715V9.69537C2.6557 11.7215 4.73029 13.0002 6.99889 13.0002V13.0002Z" fill="#111111"/>
<path d="M3.63017 8.14986C3.37884 7.40469 3.37884 6.59778 3.63017 5.8526V4.30713H1.63715C0.786151 6.00252 0.786151 7.99995 1.63715 9.69533L3.63017 8.14986V8.14986Z" fill="#111111"/>
<path d="M6.9989 3.37434C7.85431 3.36111 8.68106 3.683 9.30057 4.27385L11.0136 2.56082C9.9289 1.54226 8.48925 0.982279 6.9989 0.999916C4.73029 0.999916 2.6557 2.27862 1.63715 4.30692L3.63016 5.85239C4.10417 4.43038 5.43358 3.37434 6.9989 3.37434V3.37434Z" fill="#111111"/>
</svg>
